<svg xmlns="http://www.w3.org/2000/svg" xmlns:xlink="http://www.w3.org/1999/xlink" version="1.1" id="Layer_1" x="0px" y="0px" viewBox="0 0 618 240.3" style="enable-background:new 0 0 618 240.3;" xml:space="preserve">
<style type="text/css">
	.st0{fill:#FFFFFF;}
	.st1{fill:#D81E05;}
	.st2{fill:#009E49;}
	.st3{fill:none;}
</style>
<g id="Canada_x27_s_Store">
	<g>
		<path class="st0" d="M238,122.7c1.1-2.8,2.6-4.9,4.7-6.3c2.1-1.4,4.5-2.2,7.3-2.2c1.1,0,2.3,0.1,3.4,0.4s2.3,0.7,3.5,1.3l-2.1,7.7    c-0.7-0.4-1.4-0.7-2-0.8s-1.3-0.3-2.1-0.3c-1.1,0-2,0.3-2.7,1c-0.8,0.7-1.3,1.7-1.7,3.2c-0.4,1.5-0.6,3.4-0.6,5.9    c0,3.5,0.4,6.1,1.2,7.7c0.8,1.6,2.1,2.4,3.7,2.4c0.8,0,1.5-0.1,2.2-0.3s1.4-0.4,2-0.8l2.1,7.8c-0.9,0.5-1.9,1-3.2,1.3    s-2.5,0.5-3.8,0.5c-2.8,0-5.2-0.7-7.2-2.1s-3.6-3.5-4.8-6.3s-1.7-6.1-1.7-10.1C236.4,128.8,236.9,125.5,238,122.7z"/>
		<path class="st0" d="M266.9,114.8h11.5l7.5,35.8h-9.1l-0.9-5.7h-6.6l-0.9,5.7h-9L266.9,114.8z M274.8,138.6l-2.1-13.1h-0.1    l-2.2,13.1H274.8z"/>
		<path class="st0" d="M289,114.8h8.1l5.3,13.8c0.3,0.7,0.5,1.3,0.7,1.9s0.4,1.2,0.6,1.8h0.3c-0.1-0.8-0.2-2.1-0.2-3.9v-13.6h8.6    v35.8h-7.9l-5.9-14.7c-0.5-1.2-0.9-2.4-1.3-3.5h-0.2c0.2,1.4,0.3,2.7,0.3,3.9l0.1,14.2H289L289,114.8L289,114.8z"/>
		<path class="st0" d="M323,114.8h11.5l7.5,35.8h-9.1l-0.9-5.7h-6.6l-0.9,5.7h-9L323,114.8z M330.9,138.6l-2.1-13.1h-0.1l-2.2,13.1    H330.9z"/>
		<path class="st0" d="M345.1,114.8h10.8c2.9,0,5.4,0.7,7.4,2.1c2,1.4,3.6,3.4,4.6,6.1c1.1,2.7,1.6,5.9,1.6,9.6s-0.5,7-1.6,9.6    c-1.1,2.7-2.6,4.7-4.6,6.1c-2,1.4-4.5,2.1-7.4,2.1h-10.8V114.8z M359.1,140.1c0.8-1.6,1.2-4,1.2-7.4c0-3.3-0.4-5.8-1.1-7.3    c-0.8-1.6-2-2.3-3.6-2.3H354v19.4h1.5C357.1,142.4,358.3,141.6,359.1,140.1z"/>
		<path class="st0" d="M377.6,114.8h11.5l7.5,35.8h-9.1l-0.9-5.7H380l-0.9,5.7h-9L377.6,114.8z M385.6,138.6l-2.1-13.1h-0.1    l-2.2,13.1H385.6z"/>
		<path class="st0" d="M398.4,123.7c0.5-0.7,0.8-1.5,0.8-2.4h-2.9v-8.3h8.6c0.7,3.5,0.8,6.3,0.4,8.4s-1.2,3.7-2.4,4.8    c-1.2,1.1-2.8,2.1-4.8,3l-2.1-3.4C397.1,125,397.9,124.3,398.4,123.7z"/>
		<path class="st0" d="M411.6,150.7c-1.5-0.4-2.9-0.9-4.2-1.7l1.9-7.4c1.9,1.1,3.7,1.6,5.6,1.6c1,0,1.7-0.2,2.2-0.6s0.7-1,0.7-1.8    c0-0.8-0.3-1.6-0.8-2.4c-0.5-0.8-1.4-1.7-2.6-2.8c-2-1.7-3.6-3.5-4.8-5.3c-1.2-1.8-1.7-3.9-1.7-6.3c0-2,0.4-3.8,1.3-5.3    s2.1-2.7,3.6-3.5c1.6-0.8,3.4-1.2,5.5-1.2c1.4,0,2.8,0.2,4.2,0.5c1.5,0.3,2.7,0.8,3.8,1.3l-1.8,7.4c-0.7-0.4-1.5-0.8-2.2-1    c-0.8-0.2-1.5-0.3-2.3-0.3c-0.9,0-1.5,0.2-2,0.7c-0.5,0.4-0.7,1.1-0.7,1.8c0,0.8,0.3,1.7,0.8,2.4s1.4,1.7,2.6,2.8l0,0.1    c2.1,1.7,3.7,3.4,4.8,5.2c1.1,1.8,1.7,3.8,1.7,6.1c0,3.1-1,5.6-2.9,7.4c-1.9,1.8-4.5,2.7-7.8,2.7    C414.7,151.2,413.1,151.1,411.6,150.7z"/>
	</g>
	<g>
		<path class="st0" d="M446.2,150.7c-1.5-0.4-2.9-0.9-4.2-1.7l1.9-7.4c1.9,1.1,3.7,1.6,5.6,1.6c1,0,1.7-0.2,2.2-0.6s0.7-1,0.7-1.8    c0-0.8-0.3-1.6-0.8-2.4c-0.5-0.8-1.4-1.7-2.6-2.8c-2-1.7-3.6-3.5-4.8-5.3c-1.2-1.8-1.7-3.9-1.7-6.3c0-2,0.4-3.8,1.3-5.3    s2.1-2.7,3.6-3.5c1.6-0.8,3.4-1.2,5.5-1.2c1.4,0,2.8,0.2,4.2,0.5c1.5,0.3,2.7,0.8,3.8,1.3l-1.8,7.4c-0.7-0.4-1.5-0.8-2.2-1    c-0.8-0.2-1.5-0.3-2.3-0.3c-0.9,0-1.5,0.2-2,0.7c-0.5,0.4-0.7,1.1-0.7,1.8c0,0.8,0.3,1.7,0.8,2.4s1.4,1.7,2.6,2.8l0,0.1    c2.1,1.7,3.7,3.4,4.8,5.2c1.1,1.8,1.7,3.8,1.7,6.1c0,3.1-1,5.6-2.9,7.4c-1.9,1.8-4.5,2.7-7.8,2.7    C449.2,151.2,447.6,151.1,446.2,150.7z"/>
		<path class="st0" d="M469.7,123h-5.8v-8.2h20.5v8.2h-5.8v27.6h-8.9V123z"/>
		<path class="st0" d="M491.8,149.1c-1.9-1.4-3.4-3.4-4.4-6.2c-1-2.8-1.5-6.2-1.5-10.2c0-3.9,0.5-7.2,1.5-10s2.4-4.9,4.3-6.3    s4.2-2.2,6.9-2.2c2.7,0,4.9,0.7,6.8,2.1s3.3,3.4,4.3,6.2s1.5,6.2,1.5,10.2c0,3.9-0.5,7.2-1.5,10s-2.4,4.9-4.3,6.3    s-4.2,2.2-6.9,2.2C495.9,151.2,493.6,150.5,491.8,149.1z M495.5,138.4c0.2,1.5,0.6,2.6,1.1,3.3s1.2,1.1,1.9,1.1    c1.2,0,2-0.8,2.6-2.4c0.6-1.6,0.9-4.2,0.9-7.7c0-2.4-0.1-4.3-0.4-5.8c-0.3-1.5-0.6-2.6-1.1-3.3c-0.5-0.7-1.2-1.1-1.9-1.1    c-0.8,0-1.4,0.3-1.9,1.1c-0.5,0.7-0.9,1.8-1.1,3.2c-0.3,1.5-0.4,3.4-0.4,5.8C495.1,135.1,495.2,137,495.5,138.4z"/>
		<path class="st0" d="M515,114.8h10.5c2.5,0,4.6,0.5,6.4,1.4c1.8,0.9,3.2,2.4,4.2,4.2c1,1.9,1.5,4.1,1.5,6.8c0,2.3-0.4,4.3-1.2,6.1    s-1.9,3.2-3.3,4.3l5,12.9h-9.3l-3.7-10.7h-0.2h-1v10.7H515L515,114.8L515,114.8z M527.8,131c0.6-0.8,0.9-2.1,0.9-3.7    c0-1.5-0.3-2.7-0.9-3.6c-0.6-0.9-1.5-1.3-2.6-1.3h-1.4v9.8h1.4C526.3,132.3,527.2,131.9,527.8,131z"/>
		<path class="st0" d="M541.9,114.8h18.6v7.9h-9.7v6.1h8.2v7.4h-8.2v6.4h10v7.9h-18.8L541.9,114.8L541.9,114.8z"/>
		<g>
			<path class="st0" d="M565.1,115.5h-1.8v-0.7h4.4v0.7h-1.8v7.2h-0.8L565.1,115.5L565.1,115.5z"/>
			<path class="st0" d="M568.7,114.8h0.7l1.8,4.5c0,0.2,0.1,0.3,0.1,0.4h0c0-0.1,0.1-0.3,0.2-0.4l1.8-4.5h0.7v7.9h-0.8v-5.4     c0-0.2,0-0.3,0-0.4h0c0,0.1-0.1,0.2-0.1,0.4l-1.6,3.9h-0.4l-1.6-3.9c0-0.2-0.1-0.3-0.1-0.4h0c0,0.1,0,0.2,0,0.4v5.4h-0.8     L568.7,114.8L568.7,114.8z"/>
		</g>
	</g>
</g>
<g id="Primary_Brandmark">
	<g>
		<path class="st0" d="M213.7,75c-1.7-3.2-4.9-5.2-8.5-5.2h-51.8c0-0.1,0-0.1,0-0.2l1.8-7.1c0.1-0.6-0.4-1.1-0.9-1l-7.1,1.8    c-0.1,0-0.2,0-0.3-0.1l-2.3-4.4c-0.3-0.5-0.9-0.6-1.3-0.1l-2.3,2.7c-0.2,0.2-0.5,0-0.5-0.2l2.2-10.6c0.1-0.7-0.6-1.2-1.2-0.8    l-6.3,3.7c-0.1,0.1-0.3,0-0.4-0.1l-4.9-9.3c-0.3-0.6-1.1-0.6-1.4,0l-4.9,9.3c-0.1,0.1-0.2,0.2-0.4,0.1l-6.3-3.7    c-0.6-0.3-1.3,0.2-1.2,0.8l2.2,10.6c0.1,0.3-0.3,0.4-0.5,0.2l-2.3-2.7c-0.4-0.4-1-0.3-1.3,0.1l-2.3,4.4c-0.1,0.1-0.2,0.2-0.3,0.1    l-7.1-1.8c-0.6-0.2-1.1,0.4-0.9,1l1.8,7.1c0,0.1,0,0.1,0,0.2H53.4c-3.6,0-6.8,2-8.5,5.2s-1.4,7,0.7,9.9l76,107.6    c1.8,2.5,4.7,4,7.8,4c3.1,0,6-1.5,7.8-4l76-107.6C215.1,82,215.4,78.2,213.7,75z"/>
		<path class="st1" d="M205.2,73.4h-46.9l-14,12c-0.1,0.1-0.1,0.2-0.1,0.3l3.3,6c0.2,0.4-0.1,0.8-0.5,0.8L134,90.2    c-0.2,0-0.3,0.1-0.3,0.3v4.1c0,0.2-0.1,0.3-0.3,0.3h-8.2c-0.2,0-0.3-0.1-0.3-0.3v-4.1c0-0.2-0.2-0.3-0.3-0.3l-13.1,2.3    c-0.4,0.1-0.7-0.4-0.5-0.8l3.3-6c0.1-0.1,0-0.2-0.1-0.3l-14-12H53.4c-4.9,0-7.8,5.5-5,9.5l75.9,107.6c2.4,3.4,7.4,3.4,9.9,0    l76-107.5C213,78.9,210.1,73.4,205.2,73.4z"/>
		<g>
			<path class="st2" d="M107.1,71.8l-2.9,1.5l12.6,10.8c0.6,0.5,0.7,1.3,0.3,1.9l-1.8,3.2l12.2-2.1l0,0v5.2h3.6v-5.2l12.1,2.1     l-1.8-3.2c-0.4-0.6-0.2-1.4,0.3-1.9l12.6-10.8l-2.9-1.5c-0.7-0.4-1-1.2-0.8-1.9l1.3-5l0,0l-5,1.3c-0.8,0.2-1.5-0.2-1.9-0.8     l-1.5-2.9l-5.9,6.9c-0.5,0.6-1.5,0.1-1.3-0.7l3.1-14.5l-3.9,2.3c-0.8,0.5-1.8,0.2-2.2-0.6l-3.9-7.4l-3.9,7.4     c-0.4,0.8-1.4,1.1-2.2,0.6l-3.9-2.3l3.1,14.5c0.2,0.8-0.8,1.3-1.3,0.7l-5.9-6.9l-1.5,2.9c-0.4,0.7-1.2,1-1.9,0.8l-5-1.3l0,0     l1.3,5C108.2,70.7,107.8,71.5,107.1,71.8z"/>
		</g>
	</g>
</g>
<g id="Keepaway">
	<rect class="st3" width="618" height="240.3"/>
</g>
</svg>